<svg xmlns="http://www.w3.org/2000/svg" xmlns:xlink="http://www.w3.org/1999/xlink" version="1.1" id="Layer_1" x="0" y="0" width="844.46" height="485.98" viewBox="0 0 844.46 485.98" enable-background="new 0 0 844.458 485.975" xml:space="preserve">
  <defs>
    <rect id="SVGID_1_" width="844.46" height="485.98"/>
  </defs>
  <clipPath id="SVGID_2_">
    <use xlink:href="#SVGID_1_" overflow="visible"/>
  </clipPath>
  <path clip-path="url(#SVGID_2_)" fill="#414042" d="M424.39 100.31c-31.2 0-60.77 6.97-87.27 19.4 2.07 1.27 3.99 2.82 5.8 4.48 0.17 0.11 0.34 0.24 0.5 0.37 1.85 1.54 3.61 3.22 5.31 4.98 0.22-0.03 0.44-0.04 0.66-0.04 1.11 0.01 2.25 0.39 3.29 1.31 3.54 3.12 6.58 6.74 10.32 9.63 3.2 2.47 6.36 4.97 8.93 8.12 1.15 1.41 1.4 2.99 1.08 4.42 1.61 1.7 3.28 3.33 5.11 4.79 4.93 3.93 9.12 8.56 13.93 12.58 4.8 4.01 11.88 8.81 14.65 15.03 0.84 0.23 1.67 0.49 2.5 0.81 1.87 0.72 3.67 1.54 5.69 1.41 1.15-0.08 2.21 0.34 3.06 1.04 4.82-0.22 9.51-2.55 13.79-4.55 4.68-2.18 9.44-4.12 14.18-6.15 11.47-10.47 23.47-20.34 35.07-30.67 6.37-5.67 14.36-9.74 20.36-15.71 3.8-3.79 7.68-7.5 11.42-11.34C486 107.46 456.03 100.31 424.39 100.31"/>
  <path clip-path="url(#SVGID_2_)" fill="none" stroke="#414042" stroke-miterlimit="10" d="M424.39 100.31c-31.2 0-60.77 6.97-87.27 19.4 2.07 1.27 3.99 2.82 5.8 4.48 0.17 0.11 0.34 0.24 0.5 0.37 1.85 1.54 3.61 3.22 5.31 4.98 0.22-0.03 0.44-0.04 0.66-0.04 1.11 0.01 2.25 0.39 3.29 1.31 3.54 3.12 6.58 6.74 10.32 9.63 3.2 2.47 6.36 4.97 8.93 8.12 1.15 1.41 1.4 2.99 1.08 4.42 1.61 1.7 3.28 3.33 5.11 4.79 4.93 3.93 9.12 8.56 13.93 12.58 4.8 4.01 11.88 8.81 14.65 15.03 0.84 0.23 1.67 0.49 2.5 0.81 1.87 0.72 3.67 1.54 5.69 1.41 1.15-0.08 2.21 0.34 3.06 1.04 4.82-0.22 9.51-2.55 13.79-4.55 4.68-2.18 9.44-4.12 14.18-6.15 11.47-10.47 23.47-20.34 35.07-30.67 6.37-5.67 14.36-9.74 20.36-15.71 3.8-3.79 7.68-7.5 11.42-11.34C486 107.46 456.03 100.31 424.39 100.31z"/>
  <polyline clip-path="url(#SVGID_2_)" fill="#414042" points="354.34 137.76 366.34 149.76 372.3 153.97 374.68 147.43 350.68 125.43 348.02 130.54 378.99 160.07 389.34 172.77 412.68 192.09 424.24 205.09 452.76 172.18 "/>
  <polyline clip-path="url(#SVGID_2_)" fill="none" stroke="#414042" stroke-miterlimit="10" points="354.34 137.76 366.34 149.76 372.3 153.97 374.68 147.43 350.68 125.43 348.02 130.54 378.99 160.07 389.34 172.77 412.68 192.09 424.24 205.09 452.76 172.18 "/>
  <line clip-path="url(#SVGID_2_)" fill="#414042" x1="34.02" y1="306.86" x2="279.32" y2="61.56"/>
  <line clip-path="url(#SVGID_2_)" fill="none" stroke="#414042" stroke-width="10.51" stroke-miterlimit="10" x1="34.02" y1="306.86" x2="279.32" y2="61.56"/>
  <line clip-path="url(#SVGID_2_)" fill="#414042" x1="428.55" y1="210.27" x2="275.88" y2="57.59"/>
  <line clip-path="url(#SVGID_2_)" fill="none" stroke="#414042" stroke-width="2.74" stroke-miterlimit="10" x1="428.55" y1="210.27" x2="275.88" y2="57.59"/>
  <line clip-path="url(#SVGID_2_)" fill="#414042" x1="323.87" y1="307.86" x2="569.17" y2="62.56"/>
  <line clip-path="url(#SVGID_2_)" fill="none" stroke="#414042" stroke-width="10.51" stroke-miterlimit="10" x1="323.87" y1="307.86" x2="569.17" y2="62.56"/>
  <line clip-path="url(#SVGID_2_)" fill="#414042" x1="815.76" y1="306.62" x2="566.73" y2="57.59"/>
  <line clip-path="url(#SVGID_2_)" fill="none" stroke="#414042" stroke-width="3.5" stroke-miterlimit="10" x1="815.76" y1="306.62" x2="566.73" y2="57.59"/>
  <polygon clip-path="url(#SVGID_2_)" fill="#414042" points="214.21 415.76 209.86 415.76 209.86 319.74 169.49 388.57 129.12 319.74 129.12 415.76 124.78 415.76 124.78 304.88 125.48 304.88 169.49 380.44 213.37 304.88 214.35 305.02 "/>
  <polygon clip-path="url(#SVGID_2_)" fill="none" stroke="#414042" stroke-miterlimit="10" points="214.21 415.76 209.86 415.76 209.86 319.74 169.49 388.57 129.12 319.74 129.12 415.76 124.78 415.76 124.78 304.88 125.48 304.88 169.49 380.44 213.37 304.88 214.35 305.02 "/>
  <path clip-path="url(#SVGID_2_)" fill="#414042" d="M225 384.78c0-17.38 12.05-32.1 29.44-32.1 17.38 0 29.44 14.72 29.44 32.1 0 17.66-12.05 31.54-29.44 31.54C237.05 416.32 225 402.44 225 384.78M229.2 384.78c0 14.86 10.23 27.33 25.23 27.33 14.86 0 25.09-12.48 25.09-27.33 0-15.14-10.23-27.9-25.09-27.9C239.44 356.89 229.2 369.64 229.2 384.78"/>
  <path clip-path="url(#SVGID_2_)" fill="none" stroke="#414042" stroke-miterlimit="10" d="M225 384.78c0-17.38 12.05-32.1 29.44-32.1 17.38 0 29.44 14.72 29.44 32.1 0 17.66-12.05 31.54-29.44 31.54C237.05 416.32 225 402.44 225 384.78zM229.2 384.78c0 14.86 10.23 27.33 25.23 27.33 14.86 0 25.09-12.48 25.09-27.33 0-15.14-10.23-27.9-25.09-27.9C239.44 356.89 229.2 369.64 229.2 384.78z"/>
  <path clip-path="url(#SVGID_2_)" fill="#414042" d="M296.07 415.76h-4.2v-62.8h4.21v15.98c6.45-9.81 15.42-15.7 26.21-15.98v4.21c-14.86 0.42-26.21 12.9-26.21 27.47V415.76z"/>
  <path clip-path="url(#SVGID_2_)" fill="none" stroke="#414042" stroke-miterlimit="10" d="M296.07 415.76h-4.2v-62.8h4.21v15.98c6.45-9.81 15.42-15.7 26.21-15.98v4.21c-14.86 0.42-26.21 12.9-26.21 27.47V415.76z"/>
  <path clip-path="url(#SVGID_2_)" fill="#414042" d="M334.75 435.38l3.08-3.08c5.75 6.03 12.2 9.11 19.9 9.11 14.72 0 26.63-12.05 26.63-26.91v-12.48c-4.63 10.51-14.02 14.72-24.25 14.72 -17.38 0-30.42-14.44-30.42-31.68 0.14-17.24 13.04-31.68 30.42-31.68 10.23 0 19.48 5.19 24.25 15.14v-15.14h4.21v61.12c0 18.36-13.88 31.26-30.84 31.26C348.77 445.76 341.48 442.25 334.75 435.38M333.91 385.06c0.14 14.86 11.07 27.48 26.21 27.48 15.14 0 23.97-12.9 23.97-27.47 -0.14-14.72-8.83-27.33-23.97-27.33C344.98 357.73 333.91 370.2 333.91 385.06"/>
  <path clip-path="url(#SVGID_2_)" fill="none" stroke="#414042" stroke-miterlimit="10" d="M334.75 435.38l3.08-3.08c5.75 6.03 12.2 9.11 19.9 9.11 14.72 0 26.63-12.05 26.63-26.91v-12.48c-4.63 10.51-14.02 14.72-24.25 14.72 -17.38 0-30.42-14.44-30.42-31.68 0.14-17.24 13.04-31.68 30.42-31.68 10.23 0 19.48 5.19 24.25 15.14v-15.14h4.21v61.12c0 18.36-13.88 31.26-30.84 31.26C348.77 445.76 341.48 442.25 334.75 435.38zM333.91 385.06c0.14 14.86 11.07 27.48 26.21 27.48 15.14 0 23.97-12.9 23.97-27.47 -0.14-14.72-8.83-27.33-23.97-27.33C344.98 357.73 333.91 370.2 333.91 385.06z"/>
  <path clip-path="url(#SVGID_2_)" fill="#414042" d="M396.15 384.78c0-17.38 12.05-32.1 29.44-32.1 17.38 0 29.44 14.72 29.44 32.1 0 17.66-12.05 31.54-29.44 31.54C408.2 416.32 396.15 402.44 396.15 384.78M400.35 384.78c0 14.86 10.23 27.33 25.23 27.33 14.86 0 25.09-12.48 25.09-27.33 0-15.14-10.23-27.9-25.09-27.9C410.58 356.89 400.35 369.64 400.35 384.78"/>
  <path clip-path="url(#SVGID_2_)" fill="none" stroke="#414042" stroke-miterlimit="10" d="M396.15 384.78c0-17.38 12.05-32.1 29.44-32.1 17.38 0 29.44 14.72 29.44 32.1 0 17.66-12.05 31.54-29.44 31.54C408.2 416.32 396.15 402.44 396.15 384.78zM400.35 384.78c0 14.86 10.23 27.33 25.23 27.33 14.86 0 25.09-12.48 25.09-27.33 0-15.14-10.23-27.9-25.09-27.9C410.58 356.89 400.35 369.64 400.35 384.78z"/>
  <path clip-path="url(#SVGID_2_)" fill="#414042" d="M507.44 415.76v-40.65c0-9.25-7.71-16.68-16.54-16.68 -9.11 0-20.75 5.47-20.75 14.58v42.75h-4.06v-61.11h4.06v7.85c4.63-6.03 14.86-8.13 20.75-8.13 11.07 0 20.61 7.71 20.61 20.75v40.65H507.44z"/>
  <path clip-path="url(#SVGID_2_)" fill="none" stroke="#414042" stroke-miterlimit="10" d="M507.44 415.76v-40.65c0-9.25-7.71-16.68-16.54-16.68 -9.11 0-20.75 5.47-20.75 14.58v42.75h-4.06v-61.11h4.06v7.85c4.63-6.03 14.86-8.13 20.75-8.13 11.07 0 20.61 7.71 20.61 20.75v40.65H507.44z"/>
  <path clip-path="url(#SVGID_2_)" fill="#414042" d="M574.72 415.76v-14.86c-5.19 10.37-14.02 15.42-24.53 15.42 -17.66 0-30.7-14.44-30.7-32.1 0-17.38 13.04-31.96 30.7-31.96 10.51 0 19.2 5.33 24.53 15.42v-62.66h4.21V415.76H574.72zM523.7 384.22c0 15 11.07 27.75 26.49 27.75 15.14 0 24.11-12.9 24.11-27.75s-8.97-27.75-24.11-27.75C534.77 356.47 523.7 369.22 523.7 384.22"/>
  <path clip-path="url(#SVGID_2_)" fill="none" stroke="#414042" stroke-miterlimit="10" d="M574.72 415.76v-14.86c-5.19 10.37-14.02 15.42-24.53 15.42 -17.66 0-30.7-14.44-30.7-32.1 0-17.38 13.04-31.96 30.7-31.96 10.51 0 19.2 5.33 24.53 15.42v-62.66h4.21V415.76H574.72zM523.7 384.22c0 15 11.07 27.75 26.49 27.75 15.14 0 24.11-12.9 24.11-27.75s-8.97-27.75-24.11-27.75C534.77 356.47 523.7 369.22 523.7 384.22z"/>
  <path clip-path="url(#SVGID_2_)" fill="#414042" d="M648.73 415.76v-15.42c-6.73 10.23-15.98 15.98-26.49 15.98 -17.52 0-30.42-14.3-30.42-31.54s12.9-31.54 30.42-31.54c10.51 0 19.77 5.75 26.49 15.98v-15.42h4.21v61.96H648.73zM596.02 384.78c0 14.72 11.07 27.33 26.21 27.33 14.72 0 26.21-12.34 26.21-27.33 0-14.86-11.49-27.33-26.21-27.33C607.1 357.45 596.02 370.06 596.02 384.78"/>
  <path clip-path="url(#SVGID_2_)" fill="none" stroke="#414042" stroke-miterlimit="10" d="M648.73 415.76v-15.42c-6.73 10.23-15.98 15.98-26.49 15.98 -17.52 0-30.42-14.3-30.42-31.54s12.9-31.54 30.42-31.54c10.51 0 19.77 5.75 26.49 15.98v-15.42h4.21v61.96H648.73zM596.02 384.78c0 14.72 11.07 27.33 26.21 27.33 14.72 0 26.21-12.34 26.21-27.33 0-14.86-11.49-27.33-26.21-27.33C607.1 357.45 596.02 370.06 596.02 384.78z"/>
  <path clip-path="url(#SVGID_2_)" fill="#414042" d="M670.17 435.38l3.08-3.08c5.75 6.03 12.2 9.11 19.91 9.11 14.72 0 26.63-12.05 26.63-26.91v-12.48c-4.62 10.51-14.02 14.72-24.25 14.72 -17.38 0-30.42-14.44-30.42-31.68 0.14-17.24 13.04-31.68 30.42-31.68 10.23 0 19.48 5.19 24.25 15.14v-15.14h4.21v61.12c0 18.36-13.88 31.26-30.84 31.26C684.19 445.76 676.9 442.25 670.17 435.38M669.33 385.06c0.14 14.86 11.07 27.48 26.21 27.48 15.14 0 23.97-12.9 23.97-27.47 -0.14-14.72-8.83-27.33-23.97-27.33C680.41 357.73 669.33 370.2 669.33 385.06"/>
  <path clip-path="url(#SVGID_2_)" fill="none" stroke="#414042" stroke-miterlimit="10" d="M670.17 435.38l3.08-3.08c5.75 6.03 12.2 9.11 19.91 9.11 14.72 0 26.63-12.05 26.63-26.91v-12.48c-4.62 10.51-14.02 14.72-24.25 14.72 -17.38 0-30.42-14.44-30.42-31.68 0.14-17.24 13.04-31.68 30.42-31.68 10.23 0 19.48 5.19 24.25 15.14v-15.14h4.21v61.12c0 18.36-13.88 31.26-30.84 31.26C684.19 445.76 676.9 442.25 670.17 435.38zM669.33 385.06c0.14 14.86 11.07 27.48 26.21 27.48 15.14 0 23.97-12.9 23.97-27.47 -0.14-14.72-8.83-27.33-23.97-27.33C680.41 357.73 669.33 370.2 669.33 385.06z"/>
</svg>
